<svg width="158" height="74" viewBox="0 0 158 74" fill="none" xmlns="http://www.w3.org/2000/svg">
<path d="M70.5656 48.3686C70.0582 48.7492 69.8045 49.1299 69.4239 49.2568C56.4846 57.1239 43.0379 63.8489 28.1958 67.7825C21.4724 69.5589 14.6222 70.3202 7.77195 70.7009C5.99597 70.8278 4.09313 71.0816 2.31715 71.3353C1.68287 71.4622 0.921734 71.716 0.41431 72.0967C0.160598 72.3504 -0.0931175 72.9849 0.0337384 73.3655C0.160598 73.7462 0.794878 74 1.17545 74C18.0473 73.4924 34.5386 70.7009 49.8881 63.3414C57.7532 59.5347 65.4914 55.6012 72.8491 50.9063C73.6102 50.3988 74.7519 49.7643 75.513 49.8912C85.4078 51.5408 95.0488 49.8912 104.309 46.9728C118.644 42.5317 132.725 37.4562 146.933 32.6344C147.821 32.3806 148.836 32 150.104 32.1269C144.015 39.9939 137.799 47.7341 131.583 55.7281C132.979 56.7432 133.994 56.4894 135.008 55.855C136.15 55.0936 137.419 54.3323 138.434 53.3172C143.888 47.6072 149.343 41.8973 154.671 36.0604C155.813 34.7915 156.701 33.2689 157.462 31.7462C158.857 28.7009 157.462 26.29 154.164 25.7824C147.694 24.8942 141.351 24.1329 134.882 23.4985C132.979 23.2447 131.837 24.006 131.583 25.4018C131.456 26.6707 132.344 27.8127 134.247 28.1933C137.546 28.8278 140.844 29.2084 144.523 29.8429C143.888 30.2235 143.635 30.4773 143.254 30.6042C128.919 34.9184 114.585 39.3595 100.123 43.4199C95.81 44.6888 91.1163 45.0695 86.6763 45.7039C84.9004 45.9577 82.9975 45.7039 80.7141 45.7039C81.4752 44.8157 82.1095 44.1812 82.6169 43.6737C86.9301 39.867 90.8626 35.5528 93.9071 30.6042C96.5711 26.1631 98.2202 21.4682 98.0934 16.1389C97.9665 14.3625 97.8397 12.4591 97.3322 10.6827C95.1757 2.81564 88.0718 -1.37168 79.8261 0.404753C69.5508 2.43497 56.9921 12.7129 57.1189 27.5589C57.1189 35.9335 61.0514 42.2779 68.0285 46.8459C68.7897 47.3534 69.6776 47.861 70.5656 48.3686ZM94.5414 16.012C94.4146 20.8338 93.146 24.8942 90.8626 28.574C87.4375 34.5377 82.617 39.3595 77.4159 43.6737C76.2742 44.6888 75.1325 44.6888 73.737 44.3081C66.5063 42.0241 61.1783 34.4108 61.432 26.9244C61.8126 16.7734 70.4388 6.36851 80.4604 4.21141C87.1838 2.68875 92.3849 5.98784 94.034 12.586C94.2877 13.8549 94.4146 15.2507 94.5414 16.012Z" fill="#7F7F7F"/>
</svg>
